# xmcd
#
# Track frame offsets: 
#        150
#        13222
#        21414
#        30028
#        37676
#        54493
#        67058
#        78307
#        84159
#        89648
#        94176
#        109835
#        132293
#        141092
#        153038
#        158392
#        162627
#        167065
#        176577
#        182816
#        195143
#        204394
#        213610
#        222976
#
# Disc length: 3238 seconds
#
# Revision: 1
# Processed by: cddbd v1.5.1PL0 Copyright (c) Steve Scherf et al.
# Submitted via: ExactAudioCopy v0.90b4
#
DISCID=380ca418
DTITLE=Rodney Carrington - Greatest Hits - Disc 2 (Music)
DYEAR=2004
DGENRE=Comedy
TTITLE0=All The Reasons
TTITLE1=Don't Look Now
TTITLE2=That Awful Day
TTITLE3=Carlos, Man Of Love
TTITLE4=It's Too Late
TTITLE5=The Night The Bar Closed Down
TTITLE6=Letter To My Penis
TTITLE7=Titties And Beer
TTITLE8=In Her Day
TTITLE9=Gay Factory Worker
TTITLE10=A Dozen Roses
TTITLE11=Carlos
TTITLE12=Morning Wood
TTITLE13=More Of A Man
TTITLE14=Pickup Truck
TTITLE15=Carlos(2)
TTITLE16=Grandpa
TTITLE17=Sing You Bastards/Burning Sensation
TTITLE18=Little Things
TTITLE19=Dancing With A Man
TTITLE20=Fred
TTITLE21=Letter To My Penis(2)
TTITLE22=Put Your Clothes Back On
TTITLE23=Things We Didn't Know
EXTD=
EXTT0=
EXTT1=
EXTT2=
EXTT3=
EXTT4=
EXTT5=
EXTT6=
EXTT7=
EXTT8=
EXTT9=
EXTT10=
EXTT11=
EXTT12=
EXTT13=
EXTT14=
EXTT15=
EXTT16=
EXTT17=
EXTT18=
EXTT19=
EXTT20=
EXTT21=
EXTT22=
EXTT23=
PLAYORDER=
